# xmcd
#
# Track frame offsets: 
#        150
#        5175
#        20338
#        40113
#        68848
#        85515
#        105455
#        118525
#        141740
#        156368
#        176405
#        201083
#        220485
#        233783
#
# Disc length: 3516 seconds
#
# Revision: 3
# Processed by: cddbd v1.4PL0 Copyright (c) Steve Scherf et al.
# Submitted via: ExactAudioCopy v0.95a3
#
DISCID=bf0dba0e
DTITLE=Lou Reed - Magic And Loss
DYEAR=1992
DGENRE=Rock
TTITLE0=Dorita
TTITLE1=What's Good
TTITLE2=Power And Glory
TTITLE3=Magician
TTITLE4=Sword Of Damocles
TTITLE5=Goodby Mass
TTITLE6=Cremation
TTITLE7=Dreamin'
TTITLE8=No Chance
TTITLE9=Warrior King
TTITLE10=Harry's Circumcision
TTITLE11=Gassed And Stoked
TTITLE12=Power And Glory, Part 2
TTITLE13=Magic And Loss
EXTD=
EXTT0=
EXTT1=
EXTT2=
EXTT3=
EXTT4=
EXTT5=
EXTT6=
EXTT7=
EXTT8=
EXTT9=
EXTT10=
EXTT11=
EXTT12=
EXTT13=
PLAYORDER=
